<svg width="25" height="25" viewBox="0 0 25 25" fill="none" xmlns="http://www.w3.org/2000/svg">
    <path
        d="M21.6745 2.92278C21.1745 2.41178 20.4345 2.22278 19.7445 2.42278L3.65449 7.07178C2.92649 7.27378 2.41049 7.85078 2.27149 8.58278C2.12949 9.32878 2.62549 10.2768 3.27349 10.6728L8.30449 13.7448C8.82049 14.0608 9.48649 13.9818 9.91349 13.5538L15.6745 7.79278C15.9645 7.49178 16.4445 7.49178 16.7345 7.79278C17.0245 8.08178 17.0245 8.55278 16.7345 8.85278L10.9635 14.6138C10.5355 15.0418 10.4555 15.7058 10.7705 16.2228L13.8445 21.2728C14.2045 21.8718 14.8245 22.2128 15.5045 22.2128C15.5845 22.2128 15.6745 22.2128 15.7545 22.2018C16.5345 22.1028 17.1545 21.5718 17.3845 20.8218L22.1545 4.85278C22.3645 4.17278 22.1745 3.43278 21.6745 2.92278Z"
        fill="white" />
    <path opacity="0.4" fill-rule="evenodd" clip-rule="evenodd"
        d="M3.25756 17.1523C3.06556 17.1523 2.87356 17.0793 2.72756 16.9323C2.43456 16.6393 2.43456 16.1653 2.72756 15.8723L4.09256 14.5063C4.38556 14.2143 4.86056 14.2143 5.15356 14.5063C5.44556 14.7993 5.44556 15.2743 5.15356 15.5673L3.78756 16.9323C3.64156 17.0793 3.44956 17.1523 3.25756 17.1523ZM7.01876 18.3447C6.82676 18.3447 6.63476 18.2717 6.48876 18.1247C6.19576 17.8317 6.19576 17.3577 6.48876 17.0647L7.85376 15.6987C8.14676 15.4067 8.62176 15.4067 8.91476 15.6987C9.20676 15.9917 9.20676 16.4667 8.91476 16.7597L7.54876 18.1247C7.40276 18.2717 7.21076 18.3447 7.01876 18.3447ZM7.27246 21.9127C7.41846 22.0597 7.61046 22.1327 7.80246 22.1327C7.99446 22.1327 8.18646 22.0597 8.33246 21.9127L9.69846 20.5477C9.99046 20.2547 9.99046 19.7797 9.69846 19.4867C9.40546 19.1947 8.93046 19.1947 8.63746 19.4867L7.27246 20.8527C6.97946 21.1457 6.97946 21.6197 7.27246 21.9127Z"
        fill="white" />
</svg>
