<svg width="24" height="24" viewBox="0 0 24 24" fill="none" xmlns="http://www.w3.org/2000/svg">
    <path
        d="M22 16.653C22 16.903 21.95 17.153 21.85 17.383C21.7532 17.6134 21.6142 17.8237 21.44 18.003C21.259 18.174 21.049 18.313 20.82 18.413C20.5851 18.5085 20.3335 18.5562 20.08 18.553C18.9482 18.5338 17.8179 18.6412 16.71 18.873C15.3971 19.0278 14.1323 19.4608 13 20.143V5.23297C14.091 4.71297 15.26 4.37497 16.46 4.23297C17.6813 3.99055 18.9251 3.87992 20.17 3.90297C20.6659 3.9305 21.1318 4.14915 21.47 4.51297C21.8 4.86497 21.983 5.32997 21.98 5.81297L22 16.653ZM11 5.23297V20.143C9.88629 19.4674 8.64249 19.0346 7.34997 18.873C6.22126 18.6447 5.07143 18.5374 3.91997 18.553C3.66643 18.5562 3.41482 18.5085 3.17997 18.413C2.95154 18.3125 2.74189 18.1738 2.55997 18.003C2.38166 17.8271 2.24201 17.6159 2.14997 17.383C2.04959 17.1528 1.9985 16.9041 1.99997 16.653V5.75297C2.00154 5.27091 2.1863 4.80746 2.51681 4.45653C2.84732 4.1056 3.29886 3.89342 3.77997 3.86297C5.05167 3.83082 6.32296 3.94152 7.56997 4.19297C8.76365 4.34432 9.92324 4.69592 11 5.23297Z"
        fill="#646464" />
</svg>
