<svg width="12" height="12" viewBox="0 0 12 12" fill="none" xmlns="http://www.w3.org/2000/svg">
    <path
        d="M1.018 6.161C0.983494 6.05729 0.983494 5.9452 1.018 5.8415C1.7115 3.755 3.68 2.25 6 2.25C8.319 2.25 10.2865 3.7535 10.9815 5.839C11.0165 5.9425 11.0165 6.0545 10.9815 6.1585C10.2885 8.245 8.32 9.75 6 9.75C3.681 9.75 1.7135 8.2465 1.0185 6.161H1.018Z"
        stroke="#9597A6" stroke-width="0.75" stroke-linecap="round" stroke-linejoin="round" />
    <path
        d="M7.5 6C7.5 6.39782 7.34196 6.77936 7.06066 7.06066C6.77936 7.34196 6.39782 7.5 6 7.5C5.60218 7.5 5.22064 7.34196 4.93934 7.06066C4.65804 6.77936 4.5 6.39782 4.5 6C4.5 5.60218 4.65804 5.22064 4.93934 4.93934C5.22064 4.65804 5.60218 4.5 6 4.5C6.39782 4.5 6.77936 4.65804 7.06066 4.93934C7.34196 5.22064 7.5 5.60218 7.5 6V6Z"
        stroke="#9597A6" stroke-width="0.75" stroke-linecap="round" stroke-linejoin="round" />
    <path
        d="M1.5 10.8752C1.54918 10.8758 1.59795 10.8661 1.64315 10.8467C1.68836 10.8273 1.72902 10.7987 1.7625 10.7627L10.7625 1.76268C10.9125 1.61268 10.9125 1.38018 10.7625 1.23018C10.6125 1.08018 10.38 1.08018 10.23 1.23018L1.2375 10.2377C1.0875 10.3877 1.0875 10.6202 1.2375 10.7702C1.3125 10.8452 1.41 10.8827 1.5 10.8827V10.8752Z"
        fill="#9597A6" fill-opacity="0.8" />
</svg>
