<svg width="24" height="24" viewBox="0 0 24 24" fill="none" xmlns="http://www.w3.org/2000/svg">
    <path
        d="M12.0001 1.09949C5.97986 1.09949 1.09961 5.97974 1.09961 12C1.09961 18.0202 5.97986 22.9005 12.0001 22.9005C18.0204 22.9005 22.9006 18.0202 22.9006 12C22.9006 5.97974 18.0204 1.09949 12.0001 1.09949ZM12.9414 17.91V19.4452H11.4729V17.9272C9.06311 17.5972 8.00786 15.6172 8.00786 15.6172L9.50786 14.3625C9.50786 14.3625 10.4656 16.0297 12.1981 16.0297C13.1551 16.0297 13.8811 15.5175 13.8811 14.6422C13.8811 12.5962 8.36861 12.8445 8.36861 9.04874C8.36861 7.39874 9.67361 6.20999 11.4721 5.92874V4.39499H12.9406V5.92874C14.1946 6.09374 15.6796 6.75374 15.6796 8.17349V9.26249H13.7326V8.73449C13.7326 8.18999 13.0389 7.82699 12.2626 7.82699C11.2726 7.82699 10.5474 8.32199 10.5474 9.01499C10.5474 11.1105 16.0599 10.599 16.0599 14.5762C16.0599 16.2112 14.8389 17.6287 12.9414 17.91Z"
        fill="#646464" />
</svg>
