<svg width="32" height="32" viewBox="0 0 32 32" fill="none" xmlns="http://www.w3.org/2000/svg">
    <mask id="mask0_192_103" style="mask-type:alpha" maskUnits="userSpaceOnUse" x="0" y="2"
        width="32" height="28">
        <path
            d="M11.4623 11.6216C11.4623 13.4625 10.0297 14.9548 8.26241 14.9548C6.49517 14.9548 5.06253 13.4625 5.06253 11.6216C5.06253 9.78076 6.49517 8.28843 8.26241 8.28843C10.0297 8.28843 11.4623 9.78076 11.4623 11.6216Z"
            fill="#B4DBFF" />
        <path fill-rule="evenodd" clip-rule="evenodd"
            d="M0.000488281 6.00037C0.000488281 4.1595 1.43312 2.66718 3.20036 2.66718H28.7994C30.5666 2.66718 31.9992 4.1595 31.9992 6.00037V25.9996C31.9992 27.8404 30.5666 29.3328 28.7994 29.3328H26.6872C26.6802 29.3328 26.6731 29.3328 26.6661 29.3328H3.92964C3.92361 29.3328 3.91759 29.3328 3.91157 29.3328H3.20036C1.43312 29.3328 0.000488281 27.8404 0.000488281 25.9996V6.00037ZM3.20036 5.16707H28.7994C29.2412 5.16707 29.5993 5.54016 29.5993 6.00037V16.3868L22.6472 9.33361L10.8195 21.3331L7.33543 17.7984L2.40039 22.8052V6.00037C2.40039 5.54015 2.75855 5.16707 3.20036 5.16707Z"
            fill="#B4DBFF" />
    </mask>
    <g mask="url(#mask0_192_103)">
        <rect x="0.000488281" y="-0.000305176" width="31.9987" height="31.9987" fill="#B4DBFF" />
    </g>
</svg>
