<svg width="94" height="29" viewBox="0 0 94 29" fill="none" xmlns="http://www.w3.org/2000/svg">
    <rect x="0.872742" y="0.769714" width="92.2667" height="27.2606" rx="6" fill="#89979A" />
    <circle cx="14.503" cy="13.8757" r="6.29091" fill="white" />
    <path
        d="M18.097 13.5293C18.3636 13.6833 18.3636 14.0682 18.097 14.2221L13.0061 17.1614C12.7394 17.3153 12.4061 17.1229 12.4061 16.815L12.4061 10.9365C12.4061 10.6286 12.7394 10.4361 13.0061 10.5901L18.097 13.5293Z"
        fill="#89979A" />
    <path
        d="M31.9649 11.5956C31.9649 11.9843 31.8733 12.351 31.6899 12.6956C31.5066 13.0403 31.2133 13.3226 30.8099 13.5426C30.4066 13.7553 29.8896 13.8616 29.2589 13.8616H27.8729V16.9636H26.6189V9.31862H29.2589C29.8456 9.31862 30.3406 9.42129 30.7439 9.62662C31.1546 9.82462 31.4589 10.096 31.6569 10.4406C31.8623 10.7853 31.9649 11.1703 31.9649 11.5956ZM29.2589 12.8386C29.7356 12.8386 30.0913 12.7323 30.3259 12.5196C30.5606 12.2996 30.6779 11.9916 30.6779 11.5956C30.6779 10.7596 30.2049 10.3416 29.2589 10.3416H27.8729V12.8386H29.2589ZM34.4149 15.9516H36.9999V16.9636H33.1609V9.31862H34.4149V15.9516ZM42.6576 15.4016H39.4566L38.9066 16.9636H37.5976L40.3366 9.30762H41.7886L44.5276 16.9636H43.2076L42.6576 15.4016ZM42.3056 14.3786L41.0626 10.8256L39.8086 14.3786H42.3056ZM51.3836 9.31862L48.8536 14.1916V16.9636H47.5996V14.1916L45.0586 9.31862H46.4556L48.2266 13.0696L49.9976 9.31862H51.3836ZM61.5171 16.9636H60.2631L56.4901 11.2546V16.9636H55.2361V9.30762H56.4901L60.2631 15.0056V9.30762H61.5171V16.9636ZM66.6509 17.0406C65.9395 17.0406 65.2832 16.8756 64.6819 16.5456C64.0879 16.2083 63.6149 15.7426 63.2629 15.1486C62.9182 14.5473 62.7459 13.8726 62.7459 13.1246C62.7459 12.3766 62.9182 11.7056 63.2629 11.1116C63.6149 10.5176 64.0879 10.0556 64.6819 9.72562C65.2832 9.38829 65.9395 9.21962 66.6509 9.21962C67.3695 9.21962 68.0259 9.38829 68.6199 9.72562C69.2212 10.0556 69.6942 10.5176 70.0389 11.1116C70.3835 11.7056 70.5559 12.3766 70.5559 13.1246C70.5559 13.8726 70.3835 14.5473 70.0389 15.1486C69.6942 15.7426 69.2212 16.2083 68.6199 16.5456C68.0259 16.8756 67.3695 17.0406 66.6509 17.0406ZM66.6509 15.9516C67.1569 15.9516 67.6079 15.838 68.0039 15.6106C68.3999 15.376 68.7079 15.046 68.9279 14.6206C69.1552 14.188 69.2689 13.6893 69.2689 13.1246C69.2689 12.56 69.1552 12.065 68.9279 11.6396C68.7079 11.2143 68.3999 10.888 68.0039 10.6606C67.6079 10.4333 67.1569 10.3196 66.6509 10.3196C66.1449 10.3196 65.6939 10.4333 65.2979 10.6606C64.9019 10.888 64.5902 11.2143 64.3629 11.6396C64.1429 12.065 64.0329 12.56 64.0329 13.1246C64.0329 13.6893 64.1429 14.188 64.3629 14.6206C64.5902 15.046 64.9019 15.376 65.2979 15.6106C65.6939 15.838 66.1449 15.9516 66.6509 15.9516ZM81.7448 9.31862L79.4788 16.9636H78.0598L76.4538 11.1776L74.7488 16.9636L73.3408 16.9746L71.1738 9.31862H72.5048L74.0888 15.5446L75.8048 9.31862H77.2128L78.8078 15.5116L80.4028 9.31862H81.7448Z"
        fill="white" />
</svg>
