<svg width="139" height="139" viewBox="0 0 139 139" fill="none" xmlns="http://www.w3.org/2000/svg">
    <path
        d="M69.5 0C55.7542 0 42.3171 4.0761 30.8879 11.7129C19.4587 19.3496 10.5507 30.204 5.2904 42.9035C0.0301122 55.603 -1.34622 69.5771 1.33545 83.0588C4.01713 96.5404 10.6364 108.924 20.3561 118.644C30.0759 128.364 42.4596 134.983 55.9412 137.665C69.4229 140.346 83.397 138.97 96.0965 133.71C108.796 128.449 119.65 119.541 127.287 108.112C134.924 96.6829 139 83.2458 139 69.5C138.98 51.0737 131.651 33.4078 118.622 20.3784C105.592 7.34903 87.9263 0.0202356 69.5 0ZM28.4047 118.442C32.5296 111.179 38.5058 105.138 45.7247 100.936C52.9435 96.734 61.1472 94.5203 69.5 94.5203C77.8529 94.5203 86.0565 96.734 93.2754 100.936C100.494 105.138 106.47 111.179 110.595 118.442C99.0925 128.128 84.5379 133.44 69.5 133.44C54.4621 133.44 39.9076 128.128 28.4047 118.442ZM114.793 114.585C107.887 103.038 96.8153 94.5801 83.8587 90.9546C89.8827 87.751 94.6623 82.6247 97.437 76.3915C100.212 70.1583 100.822 63.1762 99.1713 56.5561C97.5205 49.9359 93.703 44.058 88.3264 39.8575C82.9498 35.6571 76.3229 33.3753 69.5 33.3753C62.6771 33.3753 56.0502 35.6571 50.6736 39.8575C45.297 44.058 41.4796 49.9359 39.8287 56.5561C38.1778 63.1762 38.7883 70.1583 41.563 76.3915C44.3378 82.6247 49.1173 87.751 55.1413 90.9546C42.1847 94.5801 31.1126 103.038 24.2069 114.585C15.2876 105.633 9.22058 94.24 6.77195 81.8431C4.32333 69.4462 5.60289 56.6017 10.4491 44.9316C15.2952 33.2614 23.4907 23.2888 34.0006 16.2731C44.5105 9.25738 56.8636 5.51313 69.5 5.51313C82.1364 5.51313 94.4895 9.25738 104.999 16.2731C115.509 23.2888 123.705 33.2614 128.551 44.9316C133.397 56.6017 134.677 69.4462 132.228 81.8431C129.779 94.24 123.712 105.633 114.793 114.585ZM69.5 88.96C64.5515 88.96 59.7142 87.4926 55.5997 84.7433C51.4851 81.9941 48.2783 78.0865 46.3846 73.5147C44.4908 68.9429 43.9954 63.9122 44.9608 59.0588C45.9262 54.2054 48.3091 49.7473 51.8082 46.2482C55.3073 42.7491 59.7654 40.3661 64.6189 39.4007C69.4723 38.4353 74.5029 38.9308 79.0747 40.8245C83.6466 42.7182 87.5541 45.9251 90.3034 50.0396C93.0526 54.1541 94.52 58.9915 94.52 63.94C94.52 70.5757 91.884 76.9396 87.1918 81.6318C82.4997 86.3239 76.1357 88.96 69.5 88.96Z"
        fill="black" />
</svg>
