<svg width="24" height="24" viewBox="0 0 24 24" fill="none" xmlns="http://www.w3.org/2000/svg">
    <path
        d="M5.125 4C4.2962 4 3.50134 4.32924 2.91529 4.91529C2.32924 5.50134 2 6.2962 2 7.125V16.875C2 17.7038 2.32924 18.4987 2.91529 19.0847C3.50134 19.6708 4.2962 20 5.125 20H18.875C19.7038 20 20.4987 19.6708 21.0847 19.0847C21.6708 18.4987 22 17.7038 22 16.875V7.125C22 6.2962 21.6708 5.50134 21.0847 4.91529C20.4987 4.32924 19.7038 4 18.875 4H5.125ZM9 9C9 8.8699 9.03384 8.74204 9.0982 8.62898C9.16256 8.51591 9.25522 8.42154 9.36708 8.35511C9.47895 8.28869 9.60616 8.25251 9.73624 8.25012C9.86631 8.24774 9.99477 8.27923 10.109 8.3415L15.609 11.3415C15.7273 11.406 15.8261 11.5012 15.8949 11.6171C15.9637 11.733 16 11.8652 16 12C16 12.1348 15.9637 12.267 15.8949 12.3829C15.8261 12.4988 15.7273 12.594 15.609 12.6585L10.109 15.6585C9.99477 15.7208 9.86631 15.7523 9.73624 15.7499C9.60616 15.7475 9.47895 15.7113 9.36708 15.6449C9.25522 15.5785 9.16256 15.4841 9.0982 15.371C9.03384 15.258 9 15.1301 9 15V9Z"
        fill="#646464" />
</svg>
